<svg width="142" height="21" viewBox="0 0 142 21" fill="none" xmlns="http://www.w3.org/2000/svg">
<path d="M0.546875 16V14.291L2.06055 13.998V3.79297L0.546875 3.5V1.78125H2.06055H4.95117L11.1426 11.6445L11.2012 11.6348V3.79297L9.38477 3.5V1.78125H13.75H15.2734V3.5L13.75 3.79297V16H10.9961L4.66797 6.23438L4.60938 6.24414V13.998L6.43555 14.291V16H0.546875ZM21.3379 16.2051C20.3288 16.2051 19.4466 15.9837 18.6914 15.541C17.9362 15.0918 17.3503 14.4766 16.9336 13.6953C16.5234 12.9141 16.3184 12.0221 16.3184 11.0195V10.6289C16.3184 9.58073 16.5137 8.65299 16.9043 7.8457C17.2949 7.0319 17.8451 6.39388 18.5547 5.93164C19.2708 5.46289 20.1139 5.23177 21.084 5.23828C22.041 5.23828 22.8451 5.42708 23.4961 5.80469C24.1471 6.18229 24.6419 6.72591 24.9805 7.43555C25.319 8.14518 25.4883 9.00456 25.4883 10.0137V11.5664H19.2773L19.2578 11.625C19.2969 12.0872 19.4108 12.5007 19.5996 12.8652C19.7949 13.2233 20.0684 13.5065 20.4199 13.7148C20.7715 13.9167 21.1979 14.0176 21.6992 14.0176C22.2201 14.0176 22.7051 13.9525 23.1543 13.8223C23.61 13.6855 24.0527 13.487 24.4824 13.2266L25.2539 14.9844C24.8177 15.3359 24.2676 15.6289 23.6035 15.8633C22.946 16.0911 22.1908 16.2051 21.3379 16.2051ZM19.2969 9.68164H22.8223V9.42773C22.8223 8.99805 22.7637 8.63021 22.6465 8.32422C22.5358 8.01172 22.3535 7.77083 22.0996 7.60156C21.8522 7.43229 21.5299 7.34766 21.1328 7.34766C20.7552 7.34766 20.4362 7.44857 20.1758 7.65039C19.9154 7.8457 19.7103 8.11589 19.5605 8.46094C19.4173 8.80599 19.3197 9.19661 19.2676 9.63281L19.2969 9.68164ZM30.2637 16L27.8027 7.38672L26.5137 7.15234V5.43359H31.6211V7.14258L30.5078 7.35742L31.4844 11.4688L31.6797 12.2793H31.7383L32.002 11.4688L34.1699 5.43359H36.084L38.1836 11.5469L38.457 12.4062H38.5156L38.7695 11.5469L39.9219 7.36719L38.6914 7.14258V5.43359H43.6914V7.15234L42.4609 7.38672L39.7754 16H37.373L35.4395 10.7656L35.0977 9.60352H35.0391L34.6973 10.7754L32.793 16H30.2637ZM49.1309 16.2051C48.3431 16.2051 47.6074 16.1302 46.9238 15.9805C46.2467 15.8307 45.5957 15.6159 44.9707 15.3359L44.9414 12.3477H46.9238L47.3047 13.8711C47.526 13.9818 47.7669 14.0697 48.0273 14.1348C48.2943 14.1999 48.597 14.2324 48.9355 14.2324C49.5736 14.2324 50.0228 14.1283 50.2832 13.9199C50.5436 13.7116 50.6738 13.4512 50.6738 13.1387C50.6738 12.8457 50.5339 12.5885 50.2539 12.3672C49.9805 12.1393 49.4303 11.9408 48.6035 11.7715C47.3535 11.5111 46.4323 11.1074 45.8398 10.5605C45.2474 10.0137 44.9512 9.3138 44.9512 8.46094C44.9512 7.875 45.0977 7.34115 45.3906 6.85938C45.6901 6.3776 46.1426 5.99023 46.748 5.69727C47.36 5.4043 48.1413 5.25781 49.0918 5.25781C49.8861 5.25781 50.612 5.33594 51.2695 5.49219C51.9336 5.64193 52.4902 5.84049 52.9395 6.08789L52.9688 8.97852H50.9961L50.6934 7.5918C50.5176 7.46159 50.3092 7.36393 50.0684 7.29883C49.834 7.23372 49.5671 7.20117 49.2676 7.20117C48.7663 7.20117 48.3822 7.30208 48.1152 7.50391C47.8483 7.70573 47.7148 7.96615 47.7148 8.28516C47.7148 8.46745 47.7604 8.63672 47.8516 8.79297C47.9492 8.94922 48.138 9.0957 48.418 9.23242C48.6979 9.36914 49.1048 9.49935 49.6387 9.62305C50.9473 9.92253 51.901 10.3229 52.5 10.8242C53.099 11.319 53.3984 12.0156 53.3984 12.9141C53.3984 13.8971 53.0404 14.6914 52.3242 15.2969C51.6146 15.9023 50.5501 16.2051 49.1309 16.2051ZM54.4824 16V14.291L55.498 14.1445L60.0195 1.78125H62.9395L67.4316 14.1445L68.4473 14.291V16H63.6035V14.291L64.5898 14.1152L63.9648 12.1621H58.9648L58.3398 14.1152L59.3262 14.291V16H54.4824ZM59.6387 10.0625H63.291L61.6309 5.18945L61.4941 4.75977H61.4355L61.2891 5.21875L59.6387 10.0625ZM69.1602 16V14.291L70.5273 13.998V7.44531L69.0137 7.15234V5.43359H73.1836L73.3105 6.94727C73.6621 6.4069 74.0951 5.98698 74.6094 5.6875C75.1302 5.38802 75.7227 5.23828 76.3867 5.23828C77.4349 5.23828 78.2552 5.57357 78.8477 6.24414C79.4401 6.91471 79.7363 7.96615 79.7363 9.39844V13.998L81.1035 14.291V16H75.6543V14.291L76.875 13.998V9.4082C76.875 8.69857 76.735 8.19727 76.4551 7.9043C76.1751 7.60482 75.7585 7.45508 75.2051 7.45508C74.7949 7.45508 74.4368 7.54297 74.1309 7.71875C73.8314 7.88802 73.5807 8.13216 73.3789 8.45117V13.998L74.5312 14.291V16H69.1602ZM85.5762 16.2051C84.528 16.2051 83.6947 15.9251 83.0762 15.3652C82.4577 14.7988 82.1484 14.0306 82.1484 13.0605C82.1484 12.3965 82.3275 11.8138 82.6855 11.3125C83.0501 10.8112 83.584 10.4173 84.2871 10.1309C84.9967 9.8444 85.8691 9.70117 86.9043 9.70117H88.3008V8.91992C88.3008 8.41211 88.151 8.00195 87.8516 7.68945C87.5586 7.37044 87.1159 7.21094 86.5234 7.21094C86.2174 7.21094 85.9408 7.25 85.6934 7.32812C85.4525 7.39974 85.2344 7.50391 85.0391 7.64062L84.8145 9.03711H82.7637L82.7246 6.29297C83.278 5.98047 83.877 5.72656 84.5215 5.53125C85.166 5.33594 85.8854 5.23828 86.6797 5.23828C88.0599 5.23828 89.1504 5.56055 89.9512 6.20508C90.752 6.8431 91.1523 7.75781 91.1523 8.94922V13.3047C91.1523 13.4479 91.1523 13.5911 91.1523 13.7344C91.1589 13.8711 91.1719 14.0046 91.1914 14.1348L92.2949 14.291V16H88.7598C88.6882 15.8177 88.6165 15.6224 88.5449 15.4141C88.4733 15.2057 88.4212 14.9974 88.3887 14.7891C88.0501 15.2188 87.6497 15.5638 87.1875 15.8242C86.7318 16.0781 86.1947 16.2051 85.5762 16.2051ZM86.3379 14.0957C86.735 14.0957 87.1126 14.0078 87.4707 13.832C87.8288 13.6497 88.1055 13.4121 88.3008 13.1191V11.4492H86.8945C86.2695 11.4492 85.7943 11.5924 85.4688 11.8789C85.1497 12.1654 84.9902 12.5104 84.9902 12.9141C84.9902 13.2917 85.1074 13.5846 85.3418 13.793C85.5827 13.9948 85.9147 14.0957 86.3379 14.0957ZM93.1543 16V14.291L94.5312 13.998V2.77734L93.0078 2.48438V0.765625H97.3828V13.998L98.7598 14.291V16H93.1543ZM102.627 20.2676C102.38 20.2676 102.116 20.2448 101.836 20.1992C101.562 20.1602 101.302 20.1048 101.055 20.0332L101.377 17.9434C101.501 17.9694 101.637 17.9889 101.787 18.002C101.937 18.015 102.067 18.0215 102.178 18.0215C102.588 18.0215 102.943 17.9141 103.242 17.6992C103.542 17.4844 103.76 17.1751 103.896 16.7715L104.131 16.1172L100.596 7.33789L99.2969 7.15234V5.43359H104.902V7.15234L103.613 7.34766L105.273 12.0059L105.479 12.582H105.537L107.5 7.32812L106.24 7.15234V5.43359H111.465V7.15234L110.273 7.31836L106.24 17.5723C106.045 18.0605 105.794 18.5065 105.488 18.9102C105.189 19.3203 104.805 19.6491 104.336 19.8965C103.874 20.1439 103.304 20.2676 102.627 20.2676ZM112.5 16V14.3203L117.998 7.42578H115.146L114.824 9.23242H112.734V5.43359H121.416V7.25977L116.23 13.959H119.219L119.639 12.0156H121.641V16H112.5ZM127.979 16.2051C126.969 16.2051 126.087 15.9837 125.332 15.541C124.577 15.0918 123.991 14.4766 123.574 13.6953C123.164 12.9141 122.959 12.0221 122.959 11.0195V10.6289C122.959 9.58073 123.154 8.65299 123.545 7.8457C123.936 7.0319 124.486 6.39388 125.195 5.93164C125.911 5.46289 126.755 5.23177 127.725 5.23828C128.682 5.23828 129.486 5.42708 130.137 5.80469C130.788 6.18229 131.283 6.72591 131.621 7.43555C131.96 8.14518 132.129 9.00456 132.129 10.0137V11.5664H125.918L125.898 11.625C125.938 12.0872 126.051 12.5007 126.24 12.8652C126.436 13.2233 126.709 13.5065 127.061 13.7148C127.412 13.9167 127.839 14.0176 128.34 14.0176C128.861 14.0176 129.346 13.9525 129.795 13.8223C130.251 13.6855 130.693 13.487 131.123 13.2266L131.895 14.9844C131.458 15.3359 130.908 15.6289 130.244 15.8633C129.587 16.0911 128.831 16.2051 127.979 16.2051ZM125.938 9.68164H129.463V9.42773C129.463 8.99805 129.404 8.63021 129.287 8.32422C129.176 8.01172 128.994 7.77083 128.74 7.60156C128.493 7.43229 128.171 7.34766 127.773 7.34766C127.396 7.34766 127.077 7.44857 126.816 7.65039C126.556 7.8457 126.351 8.11589 126.201 8.46094C126.058 8.80599 125.96 9.19661 125.908 9.63281L125.938 9.68164ZM133.662 16V14.291L135.029 13.998V7.44531L133.516 7.15234V5.43359H137.686L137.793 6.74219L137.812 6.97656C138.073 6.40365 138.395 5.9707 138.779 5.67773C139.163 5.38477 139.622 5.23828 140.156 5.23828C140.326 5.23828 140.511 5.25456 140.713 5.28711C140.915 5.31315 141.094 5.34896 141.25 5.39453L140.947 8.02148L139.531 7.94336C139.128 7.92383 138.799 7.99219 138.545 8.14844C138.298 8.30469 138.076 8.5293 137.881 8.82227V13.998L139.248 14.291V16H133.662Z" fill="#1A1B22"/>
</svg>
